<?xml version="1.0" encoding="utf-8"?>
<!-- Generator: Adobe Illustrator 22.1.0, SVG Export Plug-In . SVG Version: 6.00 Build 0)  -->
<!DOCTYPE svg PUBLIC "-//W3C//DTD SVG 1.1//EN" "http://www.w3.org/Graphics/SVG/1.1/DTD/svg11.dtd">
<svg version="1.1" id="Livello_1" xmlns="http://www.w3.org/2000/svg" xmlns:xlink="http://www.w3.org/1999/xlink" x="0px" y="0px"
	 width="104px" height="110px" viewBox="0 0 104 110" enable-background="new 0 0 104 110" xml:space="preserve">
<path fill="#FAFAFA" d="M9.4,9.4C5.2,11.4,0.2,16,0.2,25.9c0,1.5,0.1,3.2,0.4,4.9l0.1,0.8c0.6,4.5,2.5,18.4,9.4,32.9
	C17.1,79,23.6,88.4,34,98.8c0.1,0.1,7.9,7.8,11.8,9.7c2.8,1.4,5.5,1.4,6.2,1.4c0,0-0.1,0-0.1,0c0,0,0.1,0,0.1,0c0,0,0.1,0,0.1,0
	c0,0-0.1,0-0.1,0c0.7,0,3.5-0.1,6.2-1.4c3.9-1.9,11.7-9.7,11.8-9.7C80.4,88.4,86.9,79,93.9,64.4c6.9-14.5,8.8-28.4,9.4-32.9l0.1-0.8
	c1.8-13.1-3.8-18.8-8.9-21.3C81.8,3.2,67.5,0,52,0C36.5,0,22.2,3.2,9.4,9.4"/>
<path fill="#CC0000" d="M70.7,47.7C43.2,52,29.9,59.3,23.4,66.2c-5,5.3-3.2,9.3-1.9,11.6c4.3,6.7,9,12.4,15.1,18.5
	c2,2,8.1,7.7,10.8,9.1c2.2,1.1,4.5,1.1,4.6,1.1c0.1,0,2.4,0.1,4.6-1.1c2.7-1.3,8.9-7.1,10.8-9.1c10.1-10.1,16.4-19.2,23.2-33.4
	c3-6.3,5-12.4,6.4-17.6l0-0.1C91,45.3,82.4,45.9,70.7,47.7 M20.3,22.7h-0.5l-1.6,7.7h0.5c0.9,0,1.5-0.3,2-0.9
	c0.5-0.6,0.8-1.6,1.1-2.9c0.3-1.4,0.4-2.4,0.1-2.9C21.6,23,21.2,22.7,20.3,22.7z M93,12.6c-13.5-6.6-27.8-9-41-9s-27.5,2.4-41,9
	C6.2,15,3.8,19.4,3.8,25.9c0,1.4,0.1,2.8,0.3,4.4L4.2,31c0.4,3.2,1.5,11.1,4.6,20.6c3.6-4.6,17.8-8.5,43.1-9.9
	c23.9-1.3,40.9-1.2,46.1-1.1c0.9-4.4,1.4-7.8,1.7-9.7l0.1-0.8C101.1,21.4,98.8,15.5,93,12.6z M27.4,26.7c-0.9,4.2-4.2,6.9-8.5,6.9
	H12l3-14h6.6C27.2,19.5,28.3,22.5,27.4,26.7z M33.9,33.9c-4.2,0-6.3-1.7-5.6-5.1l2-9.3h5.6L34,28.6c-0.2,1.1,0.2,1.5,0.8,1.5
	c0.6,0,1.2-0.4,1.4-1.5l1.9-9.1h5.5l-2,9.3C41,32.2,38.2,33.9,33.9,33.9z M49.2,33.9c-4.9,0-6.5-3-5.6-7.4c0.8-4.4,4-7.3,8.8-7.3
	c3.5,0,6.2,1.4,5.4,5.6h-5.1c0.3-1.6-0.3-1.9-0.9-1.9c-1.4,0-1.9,1.5-2.4,3.7c-0.4,2.1-0.7,3.7,0.7,3.7c0.7,0,1.3-0.4,1.7-1.9h5.2
	C56.1,32.2,52.6,33.9,49.2,33.9z M66,33.5l-0.1-2.3h-4l-1,2.3h-5.3l7.5-14h7.2l1.5,14H66z M79,33.5h-5.6l2.2-10.2h-3.5l0.8-3.8h12.5
	l-0.8,3.8h-3.5L79,33.5z M89,33.5h-5.6l3-14H92L89,33.5z M63.4,27.8h2.4l0-5.3h0L63.4,27.8z"/>
</svg>
