<?xml version="1.0" encoding="UTF-8"?>
<!-- Generator: Adobe Illustrator 24.2.3, SVG Export Plug-In . SVG Version: 6.00 Build 0)  -->
<svg xmlns="http://www.w3.org/2000/svg" xmlns:xlink="http://www.w3.org/1999/xlink" id="Layer_1" x="0px" y="0px" viewBox="0 0 222.5 54" style="enable-background:new 0 0 222.5 54;" xml:space="preserve" width="222.5" height="54">
<style type="text/css">
	.st0{fill:#FAFAFA;}
</style>
<g>
	<path class="st0" d="M206.6,15.2h-2.4l-1.6,7.5h2.4c0.3,0,0.5-0.3,0.6-0.5l1.4-6.4C207.3,15.5,207,15.2,206.6,15.2z"></path>
	<g>
		<path class="st0" d="M129.7,15.3h-2.4l-1.6,7.5h2.4c0.3,0,0.6-0.2,0.6-0.5l1.5-6.5C130.2,15.6,130,15.3,129.7,15.3z"></path>
		<polygon class="st0" points="140.2,26.8 140.8,19 138,26.8   "></polygon>
		<path class="st0" d="M155.9,37.2h-0.5l-1.3,5.5h0.5c0.6,0,1.1-0.1,1.4-0.6c0.3-0.4,0.5-1.1,0.8-2c0.1-0.9,0.3-1.9,0.2-2.3    C156.8,37.5,156.5,37.2,155.9,37.2z"></path>
		<path class="st0" d="M172.3,15.7c0-0.2-0.2-0.5-0.5-0.5h-2.4l-1.2,5.5h3L172.3,15.7z"></path>
		<path class="st0" d="M169.6,28.7l0.9-4.4h-3l-0.9,4.9h2.4C169.3,29.2,169.6,29,169.6,28.7z"></path>
		<path class="st0" d="M220.9,8.9c-5.6-3-10.8-5.5-18.9-8.6C201.1,0,200,0,200,0S88.9,4,1.9,10.4c-2.4,0.3-2.4,2.8-0.6,3.9    c2.5,1.4,5,2.5,7.5,3.9h90.5l0.6,3.9H16.1c5,2.4,9.7,4.7,14.8,6.9h71.5c0.3,0,0.5-0.3,0.6-0.5c0,0,0,0,0-0.2l-2.2-14.2    c-0.2-0.3-0.2-0.6,0-1.1c0.3-1.3,1.4-2.2,2.7-2.2h6.9l-0.9,3.9h-4.1c-0.3,0-0.5,0.3-0.6,0.5l2.4,14.2c0,0.3,0,0.5,0,0.8    c-0.3,1.3-1.4,2.2-2.7,2.2h-65c7.1,3.3,14.7,6.4,22.8,10c0,0,1.4,0.6,2.4,0.9c0.9,0.3,2.2,0.5,2.4,0.5c21.4,2,71.8,5.8,137.3,10    c2.5,0.3,3.9-1.4,4.1-2.2c2.7-6,5.2-11.7,7.8-19.4h-10.6L206,33h-2.4l-0.6-6.4H202l-1.4,6.3h-4.1l4.5-21.6h2.8h1.3h4.9    c1.3,0,2,0.9,1.7,2.2l-2.4,10.8c-0.3,1.1-1.4,2-2.5,2l0.3,2.5h10.6c0.6-2.2,1.4-4.5,2.2-6.9h-7.8l0.8-3.9h8    c0.5-1.6,0.9-3.3,1.4-5.3C222.9,10.1,221.7,9.4,220.9,8.9z M183.6,11.5l-3.6,17.8h4.4l-0.8,3.7h-4.4h-4.2l4.6-21.5    C179.5,11.5,183.6,11.5,183.6,11.5z M169,11.5h1.3h5c1.2,0,2,0.9,1.7,2.2l-1.4,6.9c-0.3,1-1.3,1.6-2.2,1.6c0.9,0,1.6,0.7,1.4,1.6    l-1.4,6.9c-0.3,1.3-1.4,2.2-2.7,2.2h-5l-4,0.1l4.5-21.6H169z M116.6,32.8h-6.1c-1.1,0-1.9-0.7-1.7-2v-0.2l3.5-17    c0.3-1.3,1.4-2.2,2.7-2.2h6.3l-0.9,3.9h-3.9c-0.2,0-0.5,0.2-0.5,0.5l-2.7,13c-0.2,0.2,0.1,0.5,0.2,0.1h3.9L116.6,32.8z     M126.6,33.1l-0.6-6.4h-0.9l-1.4,6.3h-4.1l4.5-21.4h2.8h1.3h4.9c1.2,0,2.2,0.9,1.7,2.2l-2.4,10.8c-0.2,1.1-1.5,2-2.6,2.1l0.9,6.4    C130.7,33.1,126.6,33.1,126.6,33.1z M144.2,33h-4.4l0.3-2.5h-3.1l-0.8,2.5h-4.5l8.5-21.5h1.3c0,0,2.1,0,1.9-0.2h1.3L144.2,33z     M145.5,33l4.5-21.5h0.2h3.9h0.3l0.3,9.2l4.6-9.2h0.4h4.1L159.3,33h-4.1l2-9.7l-2.5,4.4l-2.2,3.9l-0.9-8.1l-2,9.5H145.5z     M160.7,40.2c-0.6,3-3,4.9-6.1,4.9h-4.9l2.2-10h4.7C160.7,35.1,161.5,37.1,160.7,40.2z M165.6,45.4c-3,0-4.4-1.2-3.9-3.6l1.4-6.7    h3.9l-1.4,6.6c-0.1,0.8,0,1.1,0.5,1.1c0.6,0,0.9-0.3,1.1-1.1l1.4-6.6h4l-1.4,6.7C170.6,44.1,168.6,45.4,165.6,45.4z M176.1,45.4    c-3.4,0-4.5-2.2-3.9-5.3c0.5-3.2,3-5.2,6.3-5.2c2.5,0,4.4,0.9,3.9,3.9h-3.6c0.2-1.1-0.1-1.4-0.6-1.4c-1,0-1.1,1.1-1.6,2.7    c-0.3,1.6-0.4,2.7,0.5,2.7c0.7,0,1-0.3,1.3-1.4l3.3,0.1C181,44.1,178.5,45.4,176.1,45.4z M188.5,45.1v-1.6h-2.8l-0.6,1.6h-3.9    l5.3-10h5l1.1,10H188.5z M203.2,35.1h4l-2.1,9.9h-4L203.2,35.1z M202.5,35.1l-0.7,2.5h-2.3l-1.6,7.4h-4.1l1.8-7.4h-2.7l0.6-2.5    H202.5z M198.1,15.2h-5.2l-1.1,5.7h4.1l-0.8,3.4h-3.9l-1.1,4.9h5l-1,3.7h-4.8h-4.1l4.6-21.5h2.8h1.1h5.3L198.1,15.2z"></path>
		<polygon class="st0" points="188.5,41 188.5,37.1 186.9,41   "></polygon>
	</g>
</g>
</svg>