<?xml version="1.0" encoding="utf-8"?>
<!-- Generator: Adobe Illustrator 27.5.0, SVG Export Plug-In . SVG Version: 6.00 Build 0)  -->
<svg version="1.1" id="Livello_1" xmlns="http://www.w3.org/2000/svg" xmlns:xlink="http://www.w3.org/1999/xlink" x="0px" y="0px"
	 viewBox="0 0 40 40" style="enable-background:new 0 0 40 40;" xml:space="preserve">
<style type="text/css">
	.st0{fill:#666666;}
</style>
<path class="st0" d="M40,18h-4.1C35,10.8,29.2,5,22,4.1V0h-4v4.1C10.8,5,5,10.8,4.1,18H0v4h4.1C5,29.2,10.8,35,18,35.9V40h4v-4.1
	C29.2,35,35,29.2,35.9,22H40V18z M20,32c-6.6,0-12-5.4-12-12S13.4,8,20,8s12,5.4,12,12S26.6,32,20,32z"/>
<path class="st0" d="M20.6,15l2,11.1c0,0.2,0,0.4,0,0.6c-0.2,1-1.2,1.8-2.1,1.8h-5.5l0.7-3h3.5c0.2,0,0.4-0.2,0.5-0.4c0,0,0,0,0-0.1
	l-2-10.9c-0.1-0.3-0.1-0.5,0-0.8c0.2-1,1.1-1.8,2.1-1.8h5.4l-0.7,3h-3.3C20.9,14.6,20.7,14.7,20.6,15C20.6,15,20.6,15,20.6,15"/>
</svg>
